<svg width="24" height="24" viewBox="0 0 24 24" fill="none" xmlns="http://www.w3.org/2000/svg">
<path d="M3.8025 7.14752L2.05499 18.165C1.89001 19.2525 2.19749 20.3475 2.91 21.1875C3.62251 22.02 4.66497 22.5 5.75999 22.5H18.24C19.335 22.5 20.3775 22.02 21.09 21.1875C21.8025 20.3475 22.11 19.2525 21.945 18.165L20.1975 7.14752C20.025 6.045 19.095 5.25 17.9775 5.25H16.4325C16.0725 3.12749 14.2275 1.5 12 1.5C9.77252 1.5 7.9275 3.12749 7.56751 5.25H6.02252C4.90498 5.25 3.97498 6.045 3.8025 7.14752ZM12 3C13.395 3 14.5575 3.96002 14.895 5.25H9.105C9.44251 3.96002 10.605 3 12 3ZM8.24999 8.25C8.66248 8.25 8.99999 8.58 8.99999 9C8.99999 10.65 10.3425 12 12 12C13.6575 12 15 10.65 15 9C15 8.58 15.3375 8.25 15.75 8.25C16.1625 8.25 16.5 8.58 16.5 9C16.5 11.4825 14.4825 13.5 12 13.5C9.5175 13.5 7.49999 11.4825 7.49999 9C7.49999 8.58 7.8375 8.25 8.24999 8.25Z" fill="white"/>
</svg>
