<svg width="20" height="20" viewBox="0 0 20 20" fill="none" xmlns="http://www.w3.org/2000/svg">
<path fill-rule="evenodd" clip-rule="evenodd" d="M1.66669 10.0124C1.66669 5.62244 5.17502 1.6665 10.0167 1.6665C14.75 1.6665 18.3334 5.54733 18.3334 9.98732C18.3334 15.1367 14.1334 18.3332 10 18.3332C8.63335 18.3332 7.11669 17.966 5.90002 17.2482C5.47502 16.9895 5.11669 16.7975 4.65835 16.9478L2.97502 17.4485C2.55002 17.582 2.16669 17.2482 2.29169 16.7975L2.85002 14.9281C2.94169 14.6693 2.92502 14.3939 2.79169 14.1769C2.07502 12.8583 1.66669 11.4145 1.66669 10.0124ZM8.91669 10.0124C8.91669 10.6049 9.39169 11.0806 9.98335 11.089C10.575 11.089 11.05 10.6049 11.05 10.0207C11.05 9.42815 10.575 8.95243 9.98335 8.95243C9.40002 8.94409 8.91669 9.42815 8.91669 10.0124ZM12.7584 10.0207C12.7584 10.6049 13.2334 11.089 13.825 11.089C14.4167 11.089 14.8917 10.6049 14.8917 10.0207C14.8917 9.42815 14.4167 8.95243 13.825 8.95243C13.2334 8.95243 12.7584 9.42815 12.7584 10.0207ZM6.14169 11.089C5.55835 11.089 5.07502 10.6049 5.07502 10.0207C5.07502 9.42815 5.55002 8.95243 6.14169 8.95243C6.73335 8.95243 7.20835 9.42815 7.20835 10.0207C7.20835 10.6049 6.73335 11.0806 6.14169 11.089Z" fill="#C0333C"/>
</svg>
