<svg width="20" height="20" viewBox="0 0 20 20" fill="none" xmlns="http://www.w3.org/2000/svg">
<path d="M17.0833 7.0835H9.58333C9.031 7.08416 8.50148 7.30386 8.11092 7.69442C7.72037 8.08498 7.50066 8.6145 7.5 9.16683V14.1668C7.50066 14.7192 7.72037 15.2487 8.11092 15.6392C8.50148 16.0298 9.031 16.2495 9.58333 16.2502H13.7858L15.5996 18.0643C15.687 18.1518 15.7984 18.2114 15.9197 18.2355C16.0409 18.2596 16.1666 18.2473 16.2809 18.1999C16.3951 18.1526 16.4928 18.0725 16.5614 17.9696C16.6301 17.8668 16.6667 17.7459 16.6667 17.6222V16.2502H17.0833C17.6357 16.2495 18.1652 16.0298 18.5557 15.6392C18.9463 15.2487 19.166 14.7192 19.1667 14.1668V9.16683C19.166 8.6145 18.9463 8.08498 18.5557 7.69442C18.1652 7.30386 17.6357 7.08416 17.0833 7.0835ZM15.4167 11.0418H15.1838C15.0874 11.9022 14.6956 12.7024 14.075 13.306C14.4331 13.4601 14.8185 13.5403 15.2083 13.5418C15.3204 13.5412 15.4283 13.5845 15.509 13.6623C15.5896 13.7402 15.6366 13.8465 15.64 13.9585C15.6417 14.0124 15.6325 14.0662 15.6131 14.1165C15.5937 14.1669 15.5643 14.2128 15.5269 14.2517C15.4894 14.2905 15.4445 14.3214 15.3949 14.3426C15.3453 14.3639 15.2919 14.3749 15.2379 14.3752C14.5719 14.3733 13.918 14.1966 13.3417 13.8627C12.7707 14.198 12.1205 14.3749 11.4583 14.3752C11.3462 14.3758 11.2384 14.3325 11.1577 14.2547C11.0771 14.1768 11.03 14.0705 11.0267 13.9585C11.025 13.9046 11.0341 13.8508 11.0536 13.8005C11.073 13.7501 11.1023 13.7042 11.1398 13.6653C11.1773 13.6265 11.2222 13.5956 11.2718 13.5744C11.3214 13.5531 11.3748 13.5421 11.4288 13.5418C11.8313 13.5423 12.2298 13.4609 12.6 13.3027C12.277 12.9954 12.0123 12.6322 11.8188 12.2306C11.7933 12.1809 11.778 12.1267 11.7739 12.071C11.7698 12.0153 11.7769 11.9594 11.7948 11.9065C11.8127 11.8537 11.841 11.805 11.8781 11.7633C11.9153 11.7216 11.9604 11.6878 12.0108 11.6638C12.0612 11.6399 12.1159 11.6263 12.1717 11.624C12.2275 11.6216 12.2831 11.6305 12.3354 11.65C12.3877 11.6696 12.4355 11.6994 12.476 11.7378C12.5165 11.7762 12.5489 11.8223 12.5713 11.8735C12.751 12.251 13.0101 12.5853 13.3308 12.8535C13.8796 12.3949 14.2396 11.7497 14.3417 11.0418H11.25C11.1395 11.0418 11.0335 10.9979 10.9554 10.9198C10.8772 10.8417 10.8333 10.7357 10.8333 10.6252C10.8333 10.5147 10.8772 10.4087 10.9554 10.3305C11.0335 10.2524 11.1395 10.2085 11.25 10.2085H12.9167V9.37516C12.9167 9.26466 12.9606 9.15867 13.0387 9.08053C13.1168 9.00239 13.2228 8.9585 13.3333 8.9585C13.4438 8.9585 13.5498 9.00239 13.628 9.08053C13.7061 9.15867 13.75 9.26466 13.75 9.37516V10.2085H15.4167C15.5272 10.2085 15.6332 10.2524 15.7113 10.3305C15.7894 10.4087 15.8333 10.5147 15.8333 10.6252C15.8333 10.7357 15.7894 10.8417 15.7113 10.9198C15.6332 10.9979 15.5272 11.0418 15.4167 11.0418Z" fill="#C0333C"/>
<path d="M6.66667 6.00732L5.98792 7.50024H7.19333C7.22333 7.45857 7.25541 7.41691 7.28791 7.37524L6.66667 6.00732Z" fill="#C0333C"/>
<path d="M10.4166 2.5H2.91665C2.36432 2.50066 1.8348 2.72037 1.44424 3.11092C1.05368 3.50148 0.833975 4.031 0.833313 4.58333V9.58333C0.833975 10.1357 1.05368 10.6652 1.44424 11.0557C1.8348 11.4463 2.36432 11.666 2.91665 11.6667H3.33331V13.0388C3.33326 13.1624 3.36988 13.2833 3.43855 13.3861C3.50723 13.489 3.60486 13.5691 3.7191 13.6164C3.83334 13.6638 3.95905 13.6761 4.08032 13.652C4.2016 13.6279 4.31299 13.5683 4.4004 13.4808L6.21415 11.6667H6.66665V9.16667C6.6675 8.88428 6.70961 8.60354 6.79165 8.33333H5.60915L4.96248 9.75583C4.91518 9.85391 4.83136 9.92957 4.72897 9.96662C4.62658 10.0037 4.51376 9.99917 4.41464 9.95408C4.31553 9.90899 4.23801 9.82689 4.19867 9.72536C4.15933 9.62383 4.16129 9.51093 4.20415 9.41083L6.28748 4.8275C6.32062 4.75476 6.37399 4.69308 6.44122 4.64983C6.50845 4.60658 6.58671 4.58359 6.66665 4.58359C6.74659 4.58359 6.82484 4.60658 6.89207 4.64983C6.9593 4.69308 7.01267 4.75476 7.04581 4.8275L7.9279 6.76792C8.41385 6.43024 8.99156 6.2495 9.58331 6.25H12.5V4.58333C12.4993 4.031 12.2796 3.50148 11.8891 3.11092C11.4985 2.72037 10.969 2.50066 10.4166 2.5Z" fill="#C0333C"/>
</svg>
