<svg width="32" height="32" viewBox="0 0 32 32" fill="none" xmlns="http://www.w3.org/2000/svg">
<path fill-rule="evenodd" clip-rule="evenodd" d="M6.01317 25.8893H5.33317C4.36117 25.8893 3.42784 25.5027 2.73984 24.8147C2.05317 24.1267 1.6665 23.1947 1.6665 22.2227V10.2227C1.6665 9.97067 1.69184 9.72133 1.7425 9.47867C1.86517 9.948 2.1345 10.384 2.5425 10.7107L5.87584 13.3773C6.8745 14.176 8.32917 14.0227 9.1385 13.0333L14.4385 6.556H17.3332C18.3052 6.556 19.2385 6.94133 19.9265 7.62933C20.6132 8.31733 20.9998 9.24933 20.9998 10.2227V22.348C19.3798 22.7667 18.1558 24.1747 18.0132 25.8893H13.9865C13.8172 23.8373 12.0958 22.2227 9.99984 22.2227C7.90384 22.2227 6.1825 23.8373 6.01317 25.8893Z" fill="#C0333C"/>
<path fill-rule="evenodd" clip-rule="evenodd" d="M3.37462 9.66934C2.94396 9.32534 2.87463 8.69467 3.21863 8.26401C3.56396 7.83334 4.19329 7.76267 4.62529 8.10801L7.18529 10.156L12.56 3.58934C12.9093 3.16134 13.54 3.09867 13.9666 3.44801C14.3933 3.79734 14.4573 4.42801 14.1066 4.85467L8.10663 12.188C7.75996 12.6133 7.13596 12.6787 6.70796 12.336L3.37462 9.66934Z" fill="#C0333C"/>
<path d="M9.99967 28.8893C11.4724 28.8893 12.6663 27.6954 12.6663 26.2227C12.6663 24.7499 11.4724 23.556 9.99967 23.556C8.52692 23.556 7.33301 24.7499 7.33301 26.2227C7.33301 27.6954 8.52692 28.8893 9.99967 28.8893Z" fill="#C0333C"/>
<path d="M21.9997 28.8893C23.4724 28.8893 24.6663 27.6954 24.6663 26.2227C24.6663 24.7499 23.4724 23.556 21.9997 23.556C20.5269 23.556 19.333 24.7499 19.333 26.2227C19.333 27.6954 20.5269 28.8893 21.9997 28.8893Z" fill="#C0333C"/>
<path fill-rule="evenodd" clip-rule="evenodd" d="M22.333 22.236V16.6987H27.9997L25.5383 13.0067C25.2917 12.6347 24.8743 12.412 24.429 12.412H22.333V10.556H24.6197C25.3997 10.556 26.1277 10.9453 26.561 11.5947L29.493 15.9933C30.041 16.8147 30.333 17.78 30.333 18.7667V23.556C30.333 24.844 29.2877 25.8893 27.9997 25.8893H25.9863C25.825 23.9467 24.2757 22.396 22.333 22.236Z" fill="#C0333C"/>
</svg>
