<svg width="32" height="32" viewBox="0 0 32 32" fill="none" xmlns="http://www.w3.org/2000/svg">
<path d="M21.9999 7.5H21.2924C21.1759 7.08911 21.0118 6.69433 20.8016 6.31958L21.3029 5.81812C21.6912 5.44623 21.6912 4.77606 21.3031 4.40381L20.5961 3.69678C20.2059 3.30615 19.5709 3.30664 19.1818 3.69678L18.6803 4.19825C18.3055 3.98804 17.9105 3.82397 17.4999 3.70752V3C17.4999 2.44849 17.0514 2 16.4999 2H15.4999C14.9484 2 14.4999 2.44849 14.4999 3V3.70752C14.089 3.82397 13.6942 3.98804 13.3195 4.19825L12.818 3.69703C12.4406 3.31885 11.7816 3.3186 11.4037 3.69678L10.6967 4.40381C10.3087 4.77585 10.3086 5.44626 10.6967 5.81787L11.1981 6.31958C10.9879 6.69433 10.8239 7.08911 10.7074 7.5H9.99988C9.44836 7.5 8.99988 7.94848 8.99988 8.5V9.5C8.99988 10.0515 9.44836 10.5 9.99988 10.5H10.7074C10.8239 10.9109 10.9879 11.3057 11.1981 11.6804L10.6969 12.1819C10.3085 12.5538 10.3086 13.2239 10.6967 13.5962L11.4037 14.3032C11.7816 14.6814 12.4408 14.6809 12.8177 14.3032L13.3195 13.8018C13.6942 14.012 14.089 14.176 14.4999 14.2925V15C14.4999 15.5515 14.9484 16 15.4999 16H16.4999C17.0514 16 17.4999 15.5515 17.4999 15V14.2925C17.9105 14.176 18.3055 14.012 18.6803 13.8018L19.1818 14.3032C19.5714 14.6934 20.2064 14.6938 20.5961 14.3032L21.3031 13.5962C21.6911 13.2242 21.6912 12.5537 21.3031 12.1821L20.8016 11.6804C21.0118 11.3057 21.1759 10.9109 21.2924 10.5H21.9999C22.5514 10.5 22.9999 10.0515 22.9999 9.5V8.5C22.9999 7.94848 22.5514 7.5 21.9999 7.5ZM15.9999 12C14.3456 12 12.9999 10.6543 12.9999 9C12.9999 7.34571 14.3456 6 15.9999 6C17.6542 6 18.9999 7.34571 18.9999 9C18.9999 10.6543 17.6542 12 15.9999 12ZM22.2431 14.0201C22.4711 13.6895 22.5961 13.2995 22.5961 12.8892C22.5961 12.5295 22.4957 12.1876 22.319 11.8854L25.7772 12.6372L22.2431 14.0201ZM9.75681 14.0202L6.22254 12.6372L9.68088 11.8854C9.50412 12.1877 9.40369 12.5297 9.40369 12.8892C9.40369 13.2996 9.52872 13.6896 9.75681 14.0202ZM13.8634 21.5327L15.4999 18.8053V29.8412L4.95325 25.7144C4.37391 25.4876 3.99988 24.9392 3.99988 24.3174V19.0152L12.0306 22.1577C12.2106 22.228 12.3961 22.2617 12.5792 22.2617C13.0927 22.2617 13.5848 21.9968 13.8634 21.5327ZM2.78381 17.4656C2.64441 17.4109 2.54114 17.303 2.4928 17.1611C2.44446 17.0195 2.46033 16.8708 2.53723 16.7427L4.7113 13.1196L15.2667 17.25L13.006 21.0181C12.88 21.228 12.6234 21.3152 12.3949 21.2266L2.78381 17.4656ZM29.507 17.1611C29.4586 17.303 29.3551 17.4109 29.2157 17.4656L19.6049 21.2266C19.3768 21.3154 19.1195 21.228 18.9938 21.0181L16.733 17.25L27.2885 13.1196L29.4625 16.7424C29.5394 16.8709 29.5553 17.0195 29.507 17.1611ZM19.9691 22.1577L27.9999 19.0151V24.3174C27.9999 24.9392 27.6259 25.4875 27.0468 25.7143L16.4999 29.8412V18.8053L18.1364 21.5327C18.4149 21.9968 18.9069 22.2617 19.4205 22.2617C19.6036 22.2617 19.7894 22.228 19.9691 22.1577Z" fill="#C0333C"/>
</svg>
