<svg width="32" height="32" viewBox="0 0 32 32" fill="none" xmlns="http://www.w3.org/2000/svg">
<path d="M13.9999 22.6667C14 24.1321 14.3719 25.5736 15.0808 26.8561C15.7897 28.1387 16.8124 29.2204 18.0532 30H7.08654C6.43428 30.0007 5.78915 29.8644 5.19289 29.6C4.59663 29.3356 4.06252 28.9489 3.62515 28.465C3.18777 27.9812 2.85686 27.4108 2.65383 26.791C2.4508 26.1711 2.38018 25.5155 2.44654 24.8667L3.88654 10.4667C3.93315 9.97277 4.16286 9.51417 4.5305 9.18108C4.89814 8.84798 5.37711 8.66448 5.8732 8.66668H23.4599C23.956 8.66448 24.4349 8.84798 24.8026 9.18108C25.1702 9.51417 25.3999 9.97277 25.4465 10.4667L25.8599 14.6133C24.8447 14.2055 23.7605 13.9973 22.6665 14C20.3686 14.0021 18.1655 14.9159 16.5406 16.5408C14.9158 18.1656 14.002 20.3688 13.9999 22.6667Z" fill="#C0333C"/>
<path d="M19.9998 12C19.823 12 19.6535 11.9298 19.5284 11.8047C19.4034 11.6797 19.3332 11.5101 19.3332 11.3333V8C19.3332 6.76232 18.8415 5.57534 17.9663 4.70017C17.0912 3.825 15.9042 3.33333 14.6665 3.33333C13.4288 3.33333 12.2418 3.825 11.3667 4.70017C10.4915 5.57534 9.99984 6.76232 9.99984 8V11.3333C9.99984 11.5101 9.9296 11.6797 9.80458 11.8047C9.67955 11.9298 9.50998 12 9.33317 12C9.15636 12 8.98679 11.9298 8.86177 11.8047C8.73674 11.6797 8.6665 11.5101 8.6665 11.3333V8C8.6665 6.4087 9.29864 4.88258 10.4239 3.75736C11.5491 2.63214 13.0752 2 14.6665 2C16.2578 2 17.7839 2.63214 18.9091 3.75736C20.0344 4.88258 20.6665 6.4087 20.6665 8V11.3333C20.6665 11.5101 20.5963 11.6797 20.4712 11.8047C20.3462 11.9298 20.1766 12 19.9998 12Z" fill="#C0333C"/>
<path d="M22.6668 15.3333C21.2164 15.3333 19.7986 15.7634 18.5927 16.5692C17.3867 17.375 16.4468 18.5203 15.8917 19.8603C15.3367 21.2003 15.1914 22.6748 15.4744 24.0973C15.7574 25.5199 16.4558 26.8265 17.4814 27.8521C18.507 28.8777 19.8136 29.5761 21.2362 29.8591C22.6587 30.1421 24.1332 29.9968 25.4732 29.4418C26.8132 28.8868 27.9585 27.9468 28.7643 26.7409C29.5701 25.5349 30.0002 24.1171 30.0002 22.6667C29.9979 20.7225 29.2245 18.8585 27.8498 17.4838C26.475 16.109 24.611 15.3356 22.6668 15.3333ZM26.4715 21.138L22.4715 25.138C22.3465 25.263 22.1769 25.3332 22.0002 25.3332C21.8234 25.3332 21.6539 25.263 21.5288 25.138L19.5288 23.138C19.4074 23.0123 19.3402 22.8439 19.3417 22.6691C19.3432 22.4943 19.4133 22.3271 19.537 22.2035C19.6606 22.0799 19.8278 22.0097 20.0026 22.0082C20.1774 22.0067 20.3458 22.0739 20.4715 22.1953L22.0002 23.724L25.5288 20.1953C25.6546 20.0739 25.823 20.0067 25.9978 20.0082C26.1726 20.0097 26.3398 20.0799 26.4634 20.2035C26.587 20.3271 26.6571 20.4943 26.6586 20.6691C26.6601 20.8439 26.5929 21.0123 26.4715 21.138Z" fill="#C0333C"/>
</svg>
