<svg width="112" height="120" viewBox="0 0 112 120" fill="none" xmlns="http://www.w3.org/2000/svg">
<path fill-rule="evenodd" clip-rule="evenodd" d="M19.1245 39.9688C17.1187 44.7486 15.9995 49.9924 15.9995 55.4922V96H7.99951C5.79039 96 3.99951 97.7909 3.99951 100C3.99951 102.209 5.79039 104 7.99951 104H19.9995H39.9995C39.9995 112.789 47.2104 120 55.9995 120C64.7887 120 71.9995 112.789 71.9995 104H83.1558L19.1245 39.9688Z" fill="#949499"/>
<path fill-rule="evenodd" clip-rule="evenodd" d="M55.9994 0C53.7903 0 51.9994 1.79088 51.9994 4V15.5391C42.8243 16.4585 34.5589 20.5156 28.265 26.6094L6.82751 5.17188C6.07749 4.42169 5.06019 4.00017 3.99939 4C2.93859 4.00017 1.92129 4.42169 1.17126 5.17188C0.421312 5.922 0 6.93929 0 8C0 9.06071 0.421312 10.078 1.17126 10.8281L105.171 114.828C105.921 115.578 106.939 115.999 107.999 115.999C109.06 115.999 110.077 115.578 110.828 114.828C111.577 114.078 111.999 113.061 111.999 112C111.999 110.939 111.577 109.922 110.828 109.172L105.39 103.734C106.909 103.167 107.999 101.717 107.999 100C107.999 97.7909 106.209 96 103.999 96H97.6556L95.9994 94.3438V55.4922C95.9994 34.7244 80.1828 17.5617 59.9994 15.5391V4C59.9994 1.79088 58.2085 0 55.9994 0Z" fill="#C0333C"/>
</svg>
