<svg width="20" height="20" viewBox="0 0 20 20" fill="none" xmlns="http://www.w3.org/2000/svg">
<path d="M11.0436 1.6665C11.2582 1.6665 11.4235 1.84196 11.4235 2.05029V4.73291C11.4235 6.25791 12.6695 7.50778 14.1794 7.51611C14.8061 7.51612 15.3009 7.5249 15.6804 7.5249C15.936 7.5249 16.3569 7.51612 16.7116 7.51611C16.9178 7.51611 17.0835 7.68296 17.0837 7.89111V14.5913C17.0837 16.658 15.4248 18.3335 13.3786 18.3335H6.81122C4.666 18.3335 2.91669 16.5744 2.91669 14.4077V5.42529C2.91669 3.35877 4.58313 1.66673 6.63739 1.6665H11.0436ZM7.43817 12.4165C7.10004 12.4165 6.81928 12.6913 6.81903 13.0327C6.81903 13.3744 7.09989 13.6577 7.43817 13.6577H11.9265C12.2647 13.6577 12.5456 13.3744 12.5456 13.0327C12.5453 12.6913 12.2646 12.4165 11.9265 12.4165H7.43817ZM7.43817 8.24951C7.1 8.24951 6.81921 8.53299 6.81903 8.87451C6.81903 9.21618 7.09989 9.4917 7.43817 9.4917H10.2272C10.5654 9.49153 10.8454 9.21607 10.8454 8.87451C10.8452 8.5331 10.5653 8.24969 10.2272 8.24951H7.43817ZM12.6257 2.42139C12.6258 2.06242 13.0567 1.88431 13.3034 2.14307C14.1953 3.07973 15.7544 4.71732 16.6257 5.63232C16.8666 5.88483 16.6898 6.30434 16.3425 6.30518C15.6643 6.30767 14.8648 6.30515 14.2897 6.29932C13.3774 6.29929 12.6259 5.54008 12.6257 4.61865V2.42139Z" fill="#C0333C"/>
</svg>
