<svg width="20" height="20" viewBox="0 0 20 20" fill="none" xmlns="http://www.w3.org/2000/svg">
<path fill-rule="evenodd" clip-rule="evenodd" d="M1.04169 8.05917C1.04169 8.32417 1.20835 8.56 1.45835 8.64833C2.18585 8.90583 2.70835 9.60083 2.70835 10.4167C2.70835 11.2325 2.18585 11.9275 1.45835 12.185C1.20835 12.2733 1.04169 12.5092 1.04169 12.7742V14.1667C1.04169 14.9725 1.69502 15.625 2.50002 15.625H17.5C18.305 15.625 18.9584 14.9725 18.9584 14.1667V12.7742C18.9584 12.5092 18.7917 12.2733 18.5417 12.185C17.8142 11.9275 17.2917 11.2325 17.2917 10.4167C17.2917 9.60083 17.8142 8.90583 18.5417 8.64833C18.7917 8.56 18.9584 8.32417 18.9584 8.05917V5.83333C18.9584 5.0275 18.305 4.375 17.5 4.375H2.50002C1.69502 4.375 1.04169 5.0275 1.04169 5.83333V8.05917ZM13.14 11.0133C12.6517 10.5258 11.86 10.5258 11.3717 11.0133C10.8842 11.5017 10.8842 12.2933 11.3717 12.7808C11.86 13.2692 12.6517 13.2692 13.14 12.7808C13.6275 12.2933 13.6275 11.5017 13.14 11.0133ZM12.0584 7.05833L7.05835 12.0583C6.81419 12.3017 6.81419 12.6983 7.05835 12.9417C7.30169 13.1858 7.69835 13.1858 7.94169 12.9417L12.9417 7.94167C13.1859 7.69833 13.1859 7.30167 12.9417 7.05833C12.6984 6.81417 12.3017 6.81417 12.0584 7.05833ZM8.62835 7.3475C8.14002 6.85917 7.34835 6.85917 6.86002 7.3475C6.37252 7.835 6.37252 8.6275 6.86002 9.115C7.34835 9.6025 8.14002 9.6025 8.62835 9.115C9.11585 8.6275 9.11585 7.835 8.62835 7.3475Z" fill="#C0333C"/>
</svg>
